<mxfile host="app.diagrams.net" agent="Mozilla/5.0 (Windows NT 10.0; Win64; x64) AppleWebKit/537.36 (KHTML, like Gecko) Chrome/131.0.0.0 Safari/537.36" version="24.9.1">
  <diagram name="Page-1" id="bxFgAf5NqYG86QRtMKOb">
    <mxGraphModel dx="598" dy="523" grid="1" gridSize="10" guides="1" tooltips="1" connect="1" arrows="1" fold="1" page="1" pageScale="1" pageWidth="2000" pageHeight="2000" math="0" shadow="0">
      <root>
        <mxCell id="0" />
        <mxCell id="1" parent="0" />
        <mxCell id="-OxHTJ21Hr8xj5cmxU7h-6" style="edgeStyle=orthogonalEdgeStyle;rounded=0;orthogonalLoop=1;jettySize=auto;html=1;fillColor=#dae8fc;strokeColor=#000000;" parent="1" source="-OxHTJ21Hr8xj5cmxU7h-1" target="-OxHTJ21Hr8xj5cmxU7h-4" edge="1">
          <mxGeometry relative="1" as="geometry" />
        </mxCell>
        <mxCell id="-OxHTJ21Hr8xj5cmxU7h-7" style="edgeStyle=orthogonalEdgeStyle;rounded=0;orthogonalLoop=1;jettySize=auto;html=1;fillColor=#dae8fc;strokeColor=#000000;" parent="1" source="-OxHTJ21Hr8xj5cmxU7h-1" target="-OxHTJ21Hr8xj5cmxU7h-5" edge="1">
          <mxGeometry relative="1" as="geometry" />
        </mxCell>
        <mxCell id="-OxHTJ21Hr8xj5cmxU7h-1" value="&lt;b&gt;Recipe Finder&lt;/b&gt;" style="rounded=0;whiteSpace=wrap;html=1;fillColor=#dae8fc;strokeColor=#6c8ebf;" parent="1" vertex="1">
          <mxGeometry x="1060" y="80" width="120" height="80" as="geometry" />
        </mxCell>
        <mxCell id="-OxHTJ21Hr8xj5cmxU7h-13" style="edgeStyle=orthogonalEdgeStyle;rounded=0;orthogonalLoop=1;jettySize=auto;html=1;" parent="1" source="-OxHTJ21Hr8xj5cmxU7h-4" target="-OxHTJ21Hr8xj5cmxU7h-8" edge="1">
          <mxGeometry relative="1" as="geometry" />
        </mxCell>
        <mxCell id="-OxHTJ21Hr8xj5cmxU7h-15" style="edgeStyle=orthogonalEdgeStyle;rounded=0;orthogonalLoop=1;jettySize=auto;html=1;" parent="1" source="-OxHTJ21Hr8xj5cmxU7h-4" target="-OxHTJ21Hr8xj5cmxU7h-11" edge="1">
          <mxGeometry relative="1" as="geometry">
            <Array as="points">
              <mxPoint x="1020" y="240" />
              <mxPoint x="1020" y="360" />
            </Array>
          </mxGeometry>
        </mxCell>
        <mxCell id="-OxHTJ21Hr8xj5cmxU7h-16" style="edgeStyle=orthogonalEdgeStyle;rounded=0;orthogonalLoop=1;jettySize=auto;html=1;" parent="1" source="-OxHTJ21Hr8xj5cmxU7h-4" edge="1">
          <mxGeometry relative="1" as="geometry">
            <mxPoint x="1060" y="360.0526315789474" as="targetPoint" />
            <Array as="points">
              <mxPoint x="1020" y="240" />
              <mxPoint x="1020" y="360" />
            </Array>
          </mxGeometry>
        </mxCell>
        <mxCell id="-OxHTJ21Hr8xj5cmxU7h-17" style="edgeStyle=orthogonalEdgeStyle;rounded=0;orthogonalLoop=1;jettySize=auto;html=1;" parent="1" source="-OxHTJ21Hr8xj5cmxU7h-4" edge="1">
          <mxGeometry relative="1" as="geometry">
            <mxPoint x="980" y="480.0526315789475" as="targetPoint" />
            <Array as="points">
              <mxPoint x="1020" y="240" />
              <mxPoint x="1020" y="480" />
            </Array>
          </mxGeometry>
        </mxCell>
        <mxCell id="-OxHTJ21Hr8xj5cmxU7h-18" style="edgeStyle=orthogonalEdgeStyle;rounded=0;orthogonalLoop=1;jettySize=auto;html=1;" parent="1" source="-OxHTJ21Hr8xj5cmxU7h-4" edge="1">
          <mxGeometry relative="1" as="geometry">
            <mxPoint x="1060" y="480.0526315789475" as="targetPoint" />
            <Array as="points">
              <mxPoint x="1020" y="240" />
              <mxPoint x="1020" y="480" />
            </Array>
          </mxGeometry>
        </mxCell>
        <mxCell id="-OxHTJ21Hr8xj5cmxU7h-4" value="&lt;b&gt;Flask&lt;/b&gt;" style="rounded=0;whiteSpace=wrap;html=1;fillColor=#dae8fc;strokeColor=#6c8ebf;" parent="1" vertex="1">
          <mxGeometry x="1060" y="200" width="120" height="80" as="geometry" />
        </mxCell>
        <mxCell id="JlDyA7lktrPoVovVxcqT-2" style="edgeStyle=orthogonalEdgeStyle;rounded=0;orthogonalLoop=1;jettySize=auto;html=1;" edge="1" parent="1" source="-OxHTJ21Hr8xj5cmxU7h-5" target="JlDyA7lktrPoVovVxcqT-1">
          <mxGeometry relative="1" as="geometry" />
        </mxCell>
        <mxCell id="-OxHTJ21Hr8xj5cmxU7h-5" value="&lt;b&gt;.github&lt;/b&gt;" style="rounded=0;whiteSpace=wrap;html=1;fillColor=#dae8fc;strokeColor=#6c8ebf;" parent="1" vertex="1">
          <mxGeometry x="1220" y="80" width="120" height="80" as="geometry" />
        </mxCell>
        <mxCell id="-OxHTJ21Hr8xj5cmxU7h-22" style="edgeStyle=orthogonalEdgeStyle;rounded=0;orthogonalLoop=1;jettySize=auto;html=1;" parent="1" source="-OxHTJ21Hr8xj5cmxU7h-8" target="-OxHTJ21Hr8xj5cmxU7h-21" edge="1">
          <mxGeometry relative="1" as="geometry" />
        </mxCell>
        <mxCell id="-OxHTJ21Hr8xj5cmxU7h-8" value="&lt;b&gt;app&lt;/b&gt;" style="rounded=0;whiteSpace=wrap;html=1;fillColor=#ffe6cc;strokeColor=#d79b00;" parent="1" vertex="1">
          <mxGeometry x="860" y="200" width="120" height="80" as="geometry" />
        </mxCell>
        <mxCell id="-OxHTJ21Hr8xj5cmxU7h-32" style="edgeStyle=orthogonalEdgeStyle;rounded=0;orthogonalLoop=1;jettySize=auto;html=1;" parent="1" source="-OxHTJ21Hr8xj5cmxU7h-11" target="-OxHTJ21Hr8xj5cmxU7h-25" edge="1">
          <mxGeometry relative="1" as="geometry">
            <Array as="points">
              <mxPoint x="850" y="340" />
              <mxPoint x="850" y="340" />
            </Array>
          </mxGeometry>
        </mxCell>
        <mxCell id="-OxHTJ21Hr8xj5cmxU7h-33" style="edgeStyle=orthogonalEdgeStyle;rounded=0;orthogonalLoop=1;jettySize=auto;html=1;" parent="1" source="-OxHTJ21Hr8xj5cmxU7h-11" target="-OxHTJ21Hr8xj5cmxU7h-26" edge="1">
          <mxGeometry relative="1" as="geometry" />
        </mxCell>
        <mxCell id="-OxHTJ21Hr8xj5cmxU7h-34" style="edgeStyle=orthogonalEdgeStyle;rounded=0;orthogonalLoop=1;jettySize=auto;html=1;" parent="1" source="-OxHTJ21Hr8xj5cmxU7h-11" target="-OxHTJ21Hr8xj5cmxU7h-27" edge="1">
          <mxGeometry relative="1" as="geometry">
            <Array as="points">
              <mxPoint x="820" y="360" />
              <mxPoint x="820" y="500" />
            </Array>
          </mxGeometry>
        </mxCell>
        <mxCell id="-OxHTJ21Hr8xj5cmxU7h-11" value="&lt;b&gt;MVC&amp;nbsp;&lt;/b&gt;&lt;div&gt;&lt;b&gt;Model–view–controller&amp;nbsp;&lt;/b&gt;&lt;/div&gt;" style="rounded=0;whiteSpace=wrap;html=1;fillColor=#f8cecc;strokeColor=#b85450;" parent="1" vertex="1">
          <mxGeometry x="860" y="320" width="120" height="80" as="geometry" />
        </mxCell>
        <mxCell id="-OxHTJ21Hr8xj5cmxU7h-20" value="&lt;b&gt;test&lt;/b&gt;" style="rounded=0;whiteSpace=wrap;html=1;fillColor=#d5e8d4;strokeColor=#82b366;" parent="1" vertex="1">
          <mxGeometry x="1060" y="320" width="120" height="80" as="geometry" />
        </mxCell>
        <mxCell id="-OxHTJ21Hr8xj5cmxU7h-21" value="&lt;b&gt;HTML/CSS/JS&lt;/b&gt;" style="rounded=0;whiteSpace=wrap;html=1;fillColor=#ffe6cc;strokeColor=#d79b00;" parent="1" vertex="1">
          <mxGeometry x="660" y="220" width="120" height="40" as="geometry" />
        </mxCell>
        <mxCell id="-OxHTJ21Hr8xj5cmxU7h-23" value="&lt;b&gt;config files:&lt;/b&gt;&lt;div&gt;&lt;b&gt;hypercorn,&lt;/b&gt;&lt;/div&gt;&lt;div&gt;&lt;b&gt;dockerfile,&lt;/b&gt;&lt;/div&gt;&lt;div&gt;&lt;b&gt;requirements&lt;/b&gt;&lt;/div&gt;" style="rounded=0;whiteSpace=wrap;html=1;fillColor=#f5f5f5;strokeColor=#666666;fontColor=#333333;" parent="1" vertex="1">
          <mxGeometry x="1060" y="440" width="120" height="80" as="geometry" />
        </mxCell>
        <mxCell id="-OxHTJ21Hr8xj5cmxU7h-24" value="&lt;b&gt;run.py&lt;/b&gt;" style="rounded=0;whiteSpace=wrap;html=1;fillColor=#fff2cc;strokeColor=#d6b656;" parent="1" vertex="1">
          <mxGeometry x="860" y="440" width="120" height="80" as="geometry" />
        </mxCell>
        <mxCell id="-OxHTJ21Hr8xj5cmxU7h-37" style="edgeStyle=orthogonalEdgeStyle;rounded=0;orthogonalLoop=1;jettySize=auto;html=1;" parent="1" source="-OxHTJ21Hr8xj5cmxU7h-25" target="-OxHTJ21Hr8xj5cmxU7h-29" edge="1">
          <mxGeometry relative="1" as="geometry" />
        </mxCell>
        <mxCell id="-OxHTJ21Hr8xj5cmxU7h-25" value="&lt;b&gt;models&lt;/b&gt;" style="rounded=0;whiteSpace=wrap;html=1;fillColor=#f8cecc;strokeColor=#b85450;" parent="1" vertex="1">
          <mxGeometry x="660" y="320" width="120" height="40" as="geometry" />
        </mxCell>
        <mxCell id="-OxHTJ21Hr8xj5cmxU7h-36" style="edgeStyle=orthogonalEdgeStyle;rounded=0;orthogonalLoop=1;jettySize=auto;html=1;entryX=1;entryY=0.5;entryDx=0;entryDy=0;" parent="1" source="-OxHTJ21Hr8xj5cmxU7h-26" target="-OxHTJ21Hr8xj5cmxU7h-30" edge="1">
          <mxGeometry relative="1" as="geometry" />
        </mxCell>
        <mxCell id="-OxHTJ21Hr8xj5cmxU7h-26" value="&lt;b&gt;services&lt;/b&gt;" style="rounded=0;whiteSpace=wrap;html=1;fillColor=#f8cecc;strokeColor=#b85450;" parent="1" vertex="1">
          <mxGeometry x="660" y="400" width="120" height="40" as="geometry" />
        </mxCell>
        <mxCell id="-OxHTJ21Hr8xj5cmxU7h-35" style="edgeStyle=orthogonalEdgeStyle;rounded=0;orthogonalLoop=1;jettySize=auto;html=1;" parent="1" source="-OxHTJ21Hr8xj5cmxU7h-27" target="-OxHTJ21Hr8xj5cmxU7h-31" edge="1">
          <mxGeometry relative="1" as="geometry" />
        </mxCell>
        <mxCell id="-OxHTJ21Hr8xj5cmxU7h-27" value="&lt;b&gt;controllers&lt;/b&gt;" style="rounded=0;whiteSpace=wrap;html=1;fillColor=#f8cecc;strokeColor=#b85450;" parent="1" vertex="1">
          <mxGeometry x="660" y="480" width="120" height="40" as="geometry" />
        </mxCell>
        <mxCell id="-OxHTJ21Hr8xj5cmxU7h-29" value="&lt;b&gt;database&lt;/b&gt;" style="rounded=0;whiteSpace=wrap;html=1;fillColor=#f8cecc;strokeColor=#b85450;" parent="1" vertex="1">
          <mxGeometry x="500" y="320" width="120" height="40" as="geometry" />
        </mxCell>
        <mxCell id="-OxHTJ21Hr8xj5cmxU7h-40" style="edgeStyle=orthogonalEdgeStyle;rounded=0;orthogonalLoop=1;jettySize=auto;html=1;" parent="1" source="-OxHTJ21Hr8xj5cmxU7h-30" target="-OxHTJ21Hr8xj5cmxU7h-39" edge="1">
          <mxGeometry relative="1" as="geometry" />
        </mxCell>
        <mxCell id="-OxHTJ21Hr8xj5cmxU7h-30" value="&lt;b&gt;different classes&lt;/b&gt;" style="rounded=0;whiteSpace=wrap;html=1;fillColor=#f8cecc;strokeColor=#b85450;" parent="1" vertex="1">
          <mxGeometry x="500" y="400" width="120" height="40" as="geometry" />
        </mxCell>
        <mxCell id="-OxHTJ21Hr8xj5cmxU7h-31" value="&lt;b&gt;different routes&lt;/b&gt;" style="rounded=0;whiteSpace=wrap;html=1;fillColor=#f8cecc;strokeColor=#b85450;" parent="1" vertex="1">
          <mxGeometry x="500" y="480" width="120" height="40" as="geometry" />
        </mxCell>
        <mxCell id="-OxHTJ21Hr8xj5cmxU7h-42" style="edgeStyle=orthogonalEdgeStyle;rounded=0;orthogonalLoop=1;jettySize=auto;html=1;" parent="1" source="-OxHTJ21Hr8xj5cmxU7h-39" target="-OxHTJ21Hr8xj5cmxU7h-41" edge="1">
          <mxGeometry relative="1" as="geometry" />
        </mxCell>
        <mxCell id="-OxHTJ21Hr8xj5cmxU7h-46" value="Access" style="edgeLabel;html=1;align=center;verticalAlign=middle;resizable=0;points=[];" parent="-OxHTJ21Hr8xj5cmxU7h-42" vertex="1" connectable="0">
          <mxGeometry x="0.229" relative="1" as="geometry">
            <mxPoint y="-7" as="offset" />
          </mxGeometry>
        </mxCell>
        <mxCell id="-OxHTJ21Hr8xj5cmxU7h-39" value="&lt;b&gt;RecipeService class&lt;/b&gt;" style="rounded=1;whiteSpace=wrap;html=1;fillColor=#dae8fc;strokeColor=#6c8ebf;" parent="1" vertex="1">
          <mxGeometry x="300" y="390" width="120" height="60" as="geometry" />
        </mxCell>
        <mxCell id="-OxHTJ21Hr8xj5cmxU7h-45" style="edgeStyle=orthogonalEdgeStyle;rounded=0;orthogonalLoop=1;jettySize=auto;html=1;" parent="1" source="-OxHTJ21Hr8xj5cmxU7h-41" target="-OxHTJ21Hr8xj5cmxU7h-44" edge="1">
          <mxGeometry relative="1" as="geometry" />
        </mxCell>
        <mxCell id="-OxHTJ21Hr8xj5cmxU7h-47" value="Get response" style="edgeLabel;html=1;align=center;verticalAlign=middle;resizable=0;points=[];" parent="-OxHTJ21Hr8xj5cmxU7h-45" vertex="1" connectable="0">
          <mxGeometry x="0.0122" y="1" relative="1" as="geometry">
            <mxPoint as="offset" />
          </mxGeometry>
        </mxCell>
        <mxCell id="-OxHTJ21Hr8xj5cmxU7h-41" value="&lt;b&gt;External apis&lt;/b&gt;" style="rounded=1;whiteSpace=wrap;html=1;fillColor=#dae8fc;strokeColor=#6c8ebf;" parent="1" vertex="1">
          <mxGeometry x="300" y="510" width="120" height="60" as="geometry" />
        </mxCell>
        <mxCell id="-OxHTJ21Hr8xj5cmxU7h-43" value="&lt;b&gt;Frontend page&lt;/b&gt;" style="rounded=1;whiteSpace=wrap;html=1;fillColor=#dae8fc;strokeColor=#6c8ebf;" parent="1" vertex="1">
          <mxGeometry x="300" y="750" width="120" height="60" as="geometry" />
        </mxCell>
        <mxCell id="-OxHTJ21Hr8xj5cmxU7h-48" style="edgeStyle=orthogonalEdgeStyle;rounded=0;orthogonalLoop=1;jettySize=auto;html=1;" parent="1" source="-OxHTJ21Hr8xj5cmxU7h-44" target="-OxHTJ21Hr8xj5cmxU7h-43" edge="1">
          <mxGeometry relative="1" as="geometry" />
        </mxCell>
        <mxCell id="-OxHTJ21Hr8xj5cmxU7h-49" value="Filter and display" style="edgeLabel;html=1;align=center;verticalAlign=middle;resizable=0;points=[];" parent="-OxHTJ21Hr8xj5cmxU7h-48" vertex="1" connectable="0">
          <mxGeometry x="0.0609" y="-1" relative="1" as="geometry">
            <mxPoint as="offset" />
          </mxGeometry>
        </mxCell>
        <mxCell id="-OxHTJ21Hr8xj5cmxU7h-44" value="&lt;b&gt;Response&lt;/b&gt;" style="rounded=1;whiteSpace=wrap;html=1;fillColor=#dae8fc;strokeColor=#6c8ebf;" parent="1" vertex="1">
          <mxGeometry x="300" y="630" width="120" height="60" as="geometry" />
        </mxCell>
        <mxCell id="JlDyA7lktrPoVovVxcqT-1" value="&lt;b&gt;CI/CD pipeline&lt;/b&gt;" style="rounded=0;whiteSpace=wrap;html=1;fillColor=#dae8fc;strokeColor=#6c8ebf;" vertex="1" parent="1">
          <mxGeometry x="1380" y="80" width="120" height="80" as="geometry" />
        </mxCell>
      </root>
    </mxGraphModel>
  </diagram>
</mxfile>
